# xmcd CD database file
#
# Track frame offsets:
#	150
#	16244
#	32114
#	42676
#	53086
#	68733
#	85355
#	97561
#	109614
#	132966
#	147039
#
# Disc length: 2202 seconds
#
# Revision: 0
# Processed by: cddbd v1.5.2PL0 Copyright (c) Steve Scherf et al.
# Submitted via: CDex 1.51
#
DISCID=8908980b
DTITLE=The Calvary Men's Choir - But the blood
DYEAR=2008
DGENRE=Country
TTITLE0=Burdens are lifted at Calvary
TTITLE1=Jesus is Lord of all
TTITLE2=Nothing but the blood
TTITLE3=Springs of living water
TTITLE4=Since Jesus passed by
TTITLE5=Sheltered in the arms of God
TTITLE6=Send the light
TTITLE7=Jesus my wonderful Lord
TTITLE8=When we see Christ
TTITLE9=Thank God I'm free
TTITLE10=Land of the living
EXTD=YEAR: 2008
EXTT0=
EXTT1=
EXTT2=
EXTT3=
EXTT4=
EXTT5=
EXTT6=
EXTT7=
EXTT8=
EXTT9=
EXTT10=
PLAYORDER=
